HIERARCHY
ROOT SpineBase
{
  OFFSET 0.000000 0.000000 0.000000
  CHANNELS 6 Xposition Yposition Zposition Zrotation Xrotation Yrotation
  JOINT SpineMid
  {
    OFFSET 0.000000 29.757582 0.000000
    CHANNELS 3 Zrotation Xrotation Yrotation
    JOINT SpineShoulder
    {
      OFFSET -0.237799 22.058233 -0.678830
      CHANNELS 3 Zrotation Xrotation Yrotation
      JOINT Neck
      {
        OFFSET -0.155346 7.280451 -0.511834
        CHANNELS 3 Zrotation Xrotation Yrotation
        JOINT Head
        {
          OFFSET -0.593177 14.779107 -2.958549
          CHANNELS 3 Zrotation Xrotation Yrotation
          End Site
          {
            OFFSET 0 0 0
          }
        }
      }
      JOINT ShoulderLeft
      {
        OFFSET -17.676839 -2.030344 3.578050
        CHANNELS 3 Zrotation Xrotation Yrotation
        JOINT ElbowLeft
        {
          OFFSET -4.201059 -25.607098 -1.804924
          CHANNELS 3 Zrotation Xrotation Yrotation
          JOINT WristLeft
          {
            OFFSET -0.002050 -21.484808 -6.278104
            CHANNELS 3 Zrotation Xrotation Yrotation
            JOINT HandLeft
            {
              OFFSET 1.278821 -3.321677 -1.249448
              CHANNELS 3 Zrotation Xrotation Yrotation
              JOINT HandTipLeft
              {
                OFFSET -0.793680 -6.644344 -2.858763
                CHANNELS 3 Zrotation Xrotation Yrotation
                End Site
                {
                  OFFSET 0 0 0
                }
              }
              JOINT ThumbLeft
              {
                OFFSET 2.729673 1.206251 -2.892404
                CHANNELS 3 Zrotation Xrotation Yrotation
                End Site
                {
                  OFFSET 0 0 0
                }
              }
            }
          }
        }
      }
      JOINT ShoulderRight
      {
        OFFSET 16.952667 -3.097871 -3.024605
        CHANNELS 3 Zrotation Xrotation Yrotation
        JOINT ElbowRight
        {
          OFFSET 4.984462 -23.680184 -0.797587
          CHANNELS 3 Zrotation Xrotation Yrotation
          JOINT WristRight
          {
            OFFSET -1.377058 -21.476475 -6.190796
            CHANNELS 3 Zrotation Xrotation Yrotation
            JOINT HandRight
            {
              OFFSET -2.621892 -5.872749 -1.268358
              CHANNELS 3 Zrotation Xrotation Yrotation
              JOINT HandTipRight
              {
                OFFSET -0.199339 -4.105067 -1.969195
                CHANNELS 3 Zrotation Xrotation Yrotation
                End Site
                {
                  OFFSET 0 0 0
                }
              }
              JOINT ThumbRight
              {
                OFFSET -2.732453 0.611108 0.344154
                CHANNELS 3 Zrotation Xrotation Yrotation
                End Site
                {
                  OFFSET 0 0 0
                }
              }
            }
          }
        }
      }
    }
  }
  JOINT HipLeft
  {
    OFFSET -8.724772 0.852324 -2.115195
    CHANNELS 3 Zrotation Xrotation Yrotation
    JOINT KneeLeft
    {
      OFFSET -3.190417 -29.503130 -6.592212
      CHANNELS 3 Zrotation Xrotation Yrotation
      JOINT AnkleLeft
      {
        OFFSET -25.536841 -21.789792 2.623062
        CHANNELS 3 Zrotation Xrotation Yrotation
        JOINT FootLeft
        {
          OFFSET 8.660370 10.174025 -4.188670
          CHANNELS 3 Zrotation Xrotation Yrotation
          End Site
          {
            OFFSET 0 0 0
          }
        }
      }
    }
  }
  JOINT HipRight
  {
    OFFSET 7.106590 -0.171490 -4.945969
    CHANNELS 3 Zrotation Xrotation Yrotation
    JOINT KneeRight
    {
      OFFSET 3.413066 -29.059662 0.212189
      CHANNELS 3 Zrotation Xrotation Yrotation
      JOINT AnkleRight
      {
        OFFSET 2.015487 -33.764724 14.877808
        CHANNELS 3 Zrotation Xrotation Yrotation
        JOINT FootRight
        {
          OFFSET -2.616436 -4.676656 -12.561813
          CHANNELS 3 Zrotation Xrotation Yrotation
          End Site
          {
            OFFSET 0 0 0
          }
        }
      }
    }
  }
}
MOTION
Frames: 9
Frame Time: 0.033333
97.340681 73.639883 425.283556 -0.000000 0.000000 10.137808 0.000000 -0.000000 -10.137808 -0.000000 0.000000 0.000000 -0.000000 0.000000 0.000000 0.000000 0.000000 0.000000 -0.000000 0.000000 0.000000 -0.000000 0.000000 0.000000 -0.000000 0.000000 0.000000 -0.000000 0.000000 0.000000 0.000000 0.000000 0.000000 0.000000 0.000000 0.000000 -0.000000 0.000000 0.000000 -0.000000 0.000000 0.000000 -0.000000 0.000000 0.000000 -0.000000 0.000000 0.000000 0.000000 0.000000 0.000000 0.000000 0.000000 0.000000 0.000000 -0.000000 -10.137808 -0.000000 0.000000 0.000000 -0.000000 0.000000 0.000000 0.000000 0.000000 0.000000 0.000000 -0.000000 -10.137808 -0.000000 0.000000 0.000000 -0.000000 0.000000 0.000000 0.000000 0.000000 0.000000
97.352289 73.645706 425.279564 0.066318 0.020501 10.053961 -0.068879 -0.008609 -10.053978 -0.000000 0.000000 0.000000 -0.000000 0.000000 0.000000 0.000000 0.000000 0.000000 -0.000000 0.000000 0.000000 -0.000000 0.000000 0.000000 -0.158332 -1.092969 -0.364251 1.725628 -3.211954 0.237961 0.000000 0.000000 0.000000 0.000000 0.000000 0.000000 -0.000000 0.000000 0.000000 -0.000000 0.000000 0.000000 -0.000000 0.000000 0.000000 -2.574839 -4.457372 1.375806 0.000000 0.000000 0.000000 0.000000 0.000000 0.000000 -0.068879 -0.008609 -10.053978 -1.699971 0.677938 -0.972881 0.385535 -0.309377 0.137155 0.000000 0.000000 0.000000 -0.068879 -0.008609 -10.053978 -0.000000 0.000000 0.000000 -0.476547 3.044763 -0.382908 0.000000 0.000000 0.000000
97.361107 73.650314 425.277760 0.121896 0.036892 9.985722 -0.126447 -0.015196 -9.985778 -0.000000 0.000000 0.000000 -0.000000 0.000000 0.000000 0.000000 0.000000 0.000000 -0.000000 0.000000 0.000000 -0.000000 0.000000 0.000000 -0.381722 -2.088317 -0.672916 3.390127 -5.800524 0.430401 0.000000 0.000000 0.000000 0.000000 0.000000 0.000000 -0.000000 0.000000 0.000000 -0.000000 0.000000 0.000000 -0.000000 0.000000 0.000000 -4.690671 -8.166372 2.390321 0.000000 0.000000 0.000000 0.000000 0.000000 0.000000 -0.126447 -0.015196 -9.985778 -3.279897 1.192546 -1.703321 0.754444 -0.569658 0.199175 0.000000 0.000000 0.000000 -0.126447 -0.015196 -9.985778 -0.000000 0.000000 0.000000 -0.695042 4.543655 -0.584553 0.000000 0.000000 0.000000
97.367136 73.653705 425.278142 0.166763 0.049183 9.933203 -0.172747 -0.019679 -9.933304 -0.000000 0.000000 0.000000 -0.000000 0.000000 0.000000 0.000000 0.000000 0.000000 -0.000000 0.000000 0.000000 -0.000000 0.000000 0.000000 -0.664006 -2.974941 -0.924129 4.956647 -7.752689 0.548664 0.000000 0.000000 0.000000 0.000000 0.000000 0.000000 -0.000000 0.000000 0.000000 -0.000000 0.000000 0.000000 -0.000000 0.000000 0.000000 -6.334814 -10.984238 3.101192 0.000000 0.000000 0.000000 0.000000 0.000000 0.000000 0.651079 -0.155726 -10.119627 -5.583567 1.504209 -2.012300 1.109529 -0.782914 0.190210 0.000000 0.000000 0.000000 -0.172747 -0.019679 -9.933304 -0.000000 0.000000 0.000000 -0.707868 4.749113 -0.652763 0.000000 0.000000 0.000000
97.370375 73.655881 425.280712 0.200941 0.057381 9.896494 -0.207813 -0.021991 -9.896635 -0.000000 0.000000 0.000000 -0.000000 0.000000 0.000000 0.000000 0.000000 0.000000 -0.000000 0.000000 0.000000 -0.000000 0.000000 0.000000 -0.998010 -3.745245 -1.117074 6.400094 -9.082745 0.569761 0.000000 0.000000 0.000000 0.000000 0.000000 0.000000 -0.000000 0.000000 0.000000 -0.000000 0.000000 0.000000 -0.000000 0.000000 0.000000 -7.506599 -12.838657 3.566374 0.000000 0.000000 0.000000 0.000000 0.000000 0.000000 0.922457 -0.185757 -10.153495 -7.243539 1.615753 -2.212186 1.453827 -0.951010 0.113790 0.000000 0.000000 0.000000 -0.207813 -0.021991 -9.896635 -0.000000 0.000000 0.000000 -0.521944 3.695559 -0.596242 0.000000 0.000000 0.000000
97.370824 73.656841 425.285469 0.224449 0.061492 9.875663 -0.231670 -0.022085 -9.875828 -0.000000 0.000000 0.000000 -0.000000 0.000000 0.000000 0.000000 0.000000 0.000000 -0.000000 0.000000 0.000000 -0.068039 0.816574 0.020247 -1.311318 -5.211069 -1.291006 7.705893 -9.816092 0.478086 0.000000 0.000000 0.000000 0.000000 0.000000 0.000000 -0.000000 0.000000 0.000000 0.304786 -0.807900 -0.033981 -0.940280 0.368847 0.377181 -7.637859 -13.223672 3.555054 0.000000 0.000000 0.000000 0.000000 0.000000 0.000000 1.220832 -0.205188 -10.207567 -8.805994 1.516173 -2.190196 1.790134 -1.075295 -0.027658 0.000000 0.000000 0.000000 -0.231670 -0.022085 -9.875828 -0.000000 0.000000 0.000000 -0.102775 1.210084 -0.388661 0.000000 0.000000 0.000000
97.365267 73.656704 425.295389 0.236020 0.063427 9.871985 -0.243400 -0.022022 -9.872162 -0.000000 0.000000 0.000000 -0.000000 0.000000 0.000000 0.000000 0.000000 0.000000 -0.000000 0.000000 0.000000 0.018283 0.819796 -0.005540 -2.678453 -6.552477 -1.413907 10.165352 -8.442356 -0.253695 0.000000 0.000000 0.000000 0.000000 0.000000 0.000000 -0.000000 0.000000 0.000000 0.305367 -0.945577 -0.024938 -1.095083 0.576980 0.374446 -7.064772 -10.883139 3.397264 0.000000 0.000000 0.000000 0.000000 0.000000 0.000000 1.786248 -0.189460 -10.342194 -11.119815 0.605849 -1.448206 2.314573 -1.159490 -0.484426 0.000000 0.000000 0.000000 -0.243400 -0.022022 -9.872162 -0.000000 0.000000 0.000000 1.415519 -7.367611 0.507700 0.000000 0.000000 0.000000
97.362347 73.656979 425.306559 0.242269 0.068884 9.868352 -0.250490 -0.026343 -9.868555 -0.000000 0.000000 0.000000 -0.000000 0.000000 0.000000 0.000000 0.000000 0.000000 -0.000000 0.000000 0.000000 -0.000000 0.000000 0.000000 -3.151338 -5.259183 -1.013480 11.425083 -8.844106 -0.955322 0.000000 0.000000 0.000000 0.000000 0.000000 0.000000 -0.000000 0.000000 0.000000 0.294864 -0.994132 -0.018745 -1.196773 0.275966 0.547901 -7.583340 -8.097936 3.543999 0.000000 0.000000 0.000000 0.000000 0.000000 0.000000 2.255829 -0.207942 -10.450395 -13.078127 -0.101636 -0.901112 2.758855 -1.234130 -0.858346 0.000000 0.000000 0.000000 -0.250490 -0.026343 -9.868555 -0.000000 0.000000 0.000000 2.940691 -15.060609 1.527043 0.000000 0.000000 0.000000
97.357364 73.654897 425.316764 0.237912 0.069029 9.879731 -0.246228 -0.027183 -9.879932 -0.000000 0.000000 0.000000 -0.000000 0.000000 0.000000 0.000000 0.000000 0.000000 -0.000000 0.000000 0.000000 -0.000000 0.000000 0.000000 -2.853248 -5.321458 -1.140174 10.384763 -8.985672 -0.437977 0.000000 0.000000 0.000000 0.000000 0.000000 0.000000 -0.000000 0.000000 0.000000 0.284786 -1.006142 -0.015118 -1.114534 0.713431 0.341360 -7.216860 -9.776998 3.501599 0.000000 0.000000 0.000000 0.000000 0.000000 0.000000 2.548778 -0.245790 -10.526979 -13.027754 -0.458752 -0.483255 2.772265 -1.130987 -0.933858 0.000000 0.000000 0.000000 -0.246228 -0.027183 -9.879932 -0.000000 0.000000 0.000000 4.110811 -20.360137 2.419452 0.000000 0.000000 0.000000
